<svg xmlns="http://www.w3.org/2000/svg" xmlns:xlink="http://www.w3.org/1999/xlink" viewBox="0,0,256,256" width="96px" height="96px"><g fill="#ffffff" fill-rule="nonzero" stroke="none" stroke-width="1" stroke-linecap="butt" stroke-linejoin="miter" stroke-miterlimit="10" stroke-dasharray="" stroke-dashoffset="0" font-family="none" font-weight="none" font-size="none" text-anchor="none" style="mix-blend-mode: normal"><g transform="scale(10.66667,10.66667)"><path d="M10.49023,2c-0.479,0 -0.88847,0.33859 -0.98047,0.80859l-0.33398,1.71484c-0.82076,0.31036 -1.57968,0.74397 -2.24609,1.29102l-1.64453,-0.56641c-0.453,-0.156 -0.95141,0.03131 -1.19141,0.44531l-1.50781,2.61328c-0.239,0.415 -0.15202,0.94186 0.20898,1.25586l1.31836,1.14648c-0.06856,0.42135 -0.11328,0.8503 -0.11328,1.29102c0,0.44072 0.04472,0.86966 0.11328,1.29102l-1.31836,1.14648c-0.361,0.314 -0.44798,0.84086 -0.20898,1.25586l1.50781,2.61328c0.239,0.415 0.73841,0.60227 1.19141,0.44727l1.64453,-0.56641c0.6662,0.54671 1.42571,0.97884 2.24609,1.28906l0.33398,1.71484c0.092,0.47 0.50147,0.80859 0.98047,0.80859h3.01953c0.479,0 0.88847,-0.33859 0.98047,-0.80859l0.33399,-1.71484c0.82076,-0.31036 1.57968,-0.74397 2.24609,-1.29102l1.64453,0.56641c0.453,0.156 0.95141,-0.03031 1.19141,-0.44531l1.50781,-2.61523c0.239,-0.415 0.15202,-0.93991 -0.20898,-1.25391l-1.31836,-1.14648c0.06856,-0.42135 0.11328,-0.8503 0.11328,-1.29102c0,-0.44072 -0.04472,-0.86966 -0.11328,-1.29102l1.31836,-1.14648c0.361,-0.314 0.44798,-0.84086 0.20898,-1.25586l-1.50781,-2.61328c-0.239,-0.415 -0.73841,-0.60227 -1.19141,-0.44727l-1.64453,0.56641c-0.6662,-0.54671 -1.42571,-0.97884 -2.24609,-1.28906l-0.33399,-1.71484c-0.092,-0.47 -0.50147,-0.80859 -0.98047,-0.80859zM12,8c2.209,0 4,1.791 4,4c0,2.209 -1.791,4 -4,4c-2.209,0 -4,-1.791 -4,-4c0,-2.209 1.791,-4 4,-4z"></path></g></g></svg>